<?xml version="1.0" encoding="utf-8"?>
<!-- Svg Vector Icons : http://www.onlinewebfonts.com/icon -->
<!DOCTYPE svg PUBLIC "-//W3C//DTD SVG 1.1//EN" "http://www.w3.org/Graphics/SVG/1.1/DTD/svg11.dtd">
<svg version="1.1" xmlns="http://www.w3.org/2000/svg" xmlns:xlink="http://www.w3.org/1999/xlink" x="0px" y="0px" viewBox="0 0 1000 1000" enable-background="new 0 0 1000 1000" xml:space="preserve">
<metadata> Svg Vector Icons : http://www.onlinewebfonts.com/icon </metadata>
<g><g transform="translate(0.000000,511.000000) scale(0.100000,-0.100000)"><path d="M3411.2,4978c-17.8-21.3-42.7-85.3-56.9-138.6c-10.7-53.3-96-181.2-184.8-284.3c-209.7-231-298.5-426.5-298.5-650.3c0-355.4,163.5-693,341.2-693c103.1,0,117.3,106.6,24.9,181.2c-92.4,78.2-152.8,263-152.8,476.2c0,227.4,46.2,334,252.3,575.7c145.7,167,245.2,348.3,245.2,451.3C3581.8,4974.4,3457.4,5034.8,3411.2,4978z"/><path d="M4836.3,4995.8c-21.3-14.2-46.2-74.7-60.4-131.5c-14.2-60.4-106.6-202.6-206.1-319.8c-231-270.1-277.2-383.8-277.2-675.2c0-341.2,156.4-657.4,327-657.4c99.5,0,117.3,99.5,39.1,188.3c-99.5,110.2-142.2,195.5-170.6,366c-32,216.8,32,401.6,213.2,614.8c199,231,266.5,359,266.5,494C4967.8,4981.5,4903.8,5038.4,4836.3,4995.8z"/><path d="M1279,2252.3c-64-39.1-131.5-113.7-149.3-163.5c-21.3-56.8-35.5-1307.8-35.5-3322.8c0-3585.7-14.2-3397.4,231-3500.5c184.8-74.6,5220.5-74.6,5405.3,3.6c188.3,78.2,227.4,209.7,227.4,778.3v476.2l152.8,24.9c671.7,103,1247.4,536.6,1553,1169.2c202.6,415.8,259.4,721.4,238.1,1247.4C8873.4-342,8685,134.2,8269.2,550c-284.3,287.9-582.8,444.2-1005.7,522.4l-305.6,56.8v419.4c0,508.2-42.7,646.8-227.4,721.4c-106.6,46.2-522.4,53.3-2729.3,53.3C1460.2,2323.3,1392.7,2319.8,1279,2252.3z M6687.8,2053.2c49.7-49.7,56.8-394.5,56.8-3283.7s-7.1-3233.9-56.8-3283.7c-49.8-49.7-337.6-56.8-2647.6-56.8c-1720,0-2619.1,10.6-2665.3,35.5c-67.5,35.5-67.5,110.1-67.5,3297.9c0,2491.2,10.7,3273,42.7,3305c32,32,671.7,42.6,2661.8,42.6C6346.6,2110.1,6638,2103,6687.8,2053.2z M7359.4,848.5c643.3-167,1101.7-668.1,1290-1403.7c96-373.1,81.8-945.3-35.5-1297.1c-163.5-504.6-419.3-856.5-806.7-1115.9c-213.2-142.2-600.6-287.8-764.1-287.8c-85.3,0-85.3,3.5-85.3,351.8v351.8l135,24.9c341.2,64,650.3,330.5,835.1,725c96,199,113.7,284.3,124.4,575.7c17.8,380.3-42.6,646.8-191.9,909.8c-174.1,291.4-568.6,575.7-803.2,579.3h-99.5V582v319.8h99.5C7110.7,901.8,7249.3,876.9,7359.4,848.5z M7302.6-43.5c358.9-206.1,554.4-589.9,557.9-1098.1c3.5-287.9-7.1-344.7-106.6-550.8c-145.7-305.6-263-437.1-483.3-547.3c-337.6-170.6-312.7-259.4-312.7,1115.9V84.5l99.5-21.3C7110.7,52.5,7220.9,2.7,7302.6-43.5z"/><path d="M4512.9,272.8c-21.3-35.5-270.1-685.9-557.9-1446.4c-476.2-1261.6-515.3-1386-465.6-1435.7c49.8-49.8,64-49.8,106.6-7.1c71.1,74.6,1094.6,2793.2,1080.3,2871.4C4658.6,336.8,4552,351,4512.9,272.8z"/><path d="M2888.8-438c-568.6-515.3-636.1-614.8-568.6-835.1c39.1-117.3,657.4-739.2,735.6-739.2c159.9,0,106.6,113.7-216.8,440.6c-234.6,241.7-323.4,355.4-323.4,422.9c0,67.5,81.7,163.5,337.6,401.6c206.1,184.8,337.6,334.1,330.5,366C3162.5-278,3034.5-302.9,2888.8-438z"/><path d="M5003.3-388.2c0-53.3,95.9-174.1,287.9-362.5c156.3-156.4,302.1-312.7,319.8-344.7c53.3-96-24.9-202.6-366.1-504.6c-312.7-277.2-373.1-383.8-223.9-405.1c74.6-7.1,675.2,504.6,753.4,643.2c24.9,42.6,42.6,142.1,46.2,216.8c0,127.9-24.9,163.5-344.7,486.9C5131.2-302.9,5003.3-231.8,5003.3-388.2z"/></g></g>
</svg>