<?xml version="1.0" encoding="utf-8"?>
<!-- Svg Vector Icons : http://www.onlinewebfonts.com/icon -->
<!DOCTYPE svg PUBLIC "-//W3C//DTD SVG 1.1//EN" "http://www.w3.org/Graphics/SVG/1.1/DTD/svg11.dtd">
<svg version="1.1" xmlns="http://www.w3.org/2000/svg" xmlns:xlink="http://www.w3.org/1999/xlink" x="0px" y="0px" viewBox="0 0 1000 1000" enable-background="new 0 0 1000 1000" xml:space="preserve">
<metadata> Svg Vector Icons : http://www.onlinewebfonts.com/icon </metadata>
<g><path d="M943.4,305c-31.3-33.9-75.6-52.2-128.3-53.1c-7.8-15.9-26.4-45.9-58.2-56c-80.5-25.2-329.1-25.5-339.5-25.5h-0.5c-0.1,0-12.3-0.1-31.7-0.1c-70.1,0-240.3,2.2-304.4,22.6c-14.3,4.5-27.3,11.5-38.3,21C21.9,231.5,10,257.6,10,285.6V425c0,54.8,10.5,110.3,30.2,160.4c19.8,50.4,49.3,96,85.2,131.9c36.2,36.2,80.1,64.4,130.8,83.7c49.6,18.9,103.2,28.7,159.2,28.7c63.1,0,122.1-10.7,175.4-32c56.3-22.4,103.1-55.3,139.2-97.7c19.3-22.8,34.8-46.7,47.2-73.1c59.1-0.9,112.8-20.6,151.7-55.8c39.4-35.6,61.2-84.2,61.2-137C989.7,383.2,973.4,337.4,943.4,305z M920.1,561.7c-37.5,33.8-89.8,52.5-147.3,52.5h-4.1l-1.7,3.7c-12.2,26.7-27.5,50.8-47.1,73.7c-34.7,40.8-79.8,72.5-134.2,94.2c-51.2,20.3-110.2,31.1-170.7,31.1c-54.4,0-106.4-9.3-154.7-27.8c-48.9-18.7-91.3-45.9-126.3-80.7C99.6,673.6,71.2,629.5,52,580.7S22.7,478.1,22.7,424.9V285.4c0-24.3,10.2-46.8,27.9-61.9c9.7-8.3,21.1-14.5,33.9-18.6c62.4-19.8,230.9-22,300.5-22c19.3,0,31.5,0.1,31.7,0.1h0.6c10.5,0,257.2,0.3,335.7,24.9c29.6,9.5,46.3,40,52.2,52.8l1.7,3.7h4.1c50.8,0,93.4,16.9,123.1,49c27.8,30.1,43,72.8,43,120.4C977,483.2,956.9,528.5,920.1,561.7z"/><path d="M820,367.2c-4.2,0-8.2,0.4-12,1.3l-5,1.2v55.8c0,24.6-0.4,50.5-4.2,76l-1.3,8.6l8.6-1.2c36.7-5.1,77.9-41.7,78.4-85.7c0.3-12.8-5-24.9-15-35.1C856.8,375.1,837.9,367.2,820,367.2z M848.8,472.5c-10.5,10.4-23.5,18.2-36.1,21.7c2.9-23.3,3.2-46.7,3.2-68.8v-45.3c1.4-0.1,2.7-0.3,4.2-0.3c14.3,0,30.2,6.7,40.4,17c5.2,5.2,11.4,14.1,11.3,26C871.4,440.5,863.2,458.2,848.8,472.5z"/><path d="M129.4,242.5c6.6-8.5,141.1-15.1,300.3-14.7c159.2,0.4,282.9,7.5,276.2,16c-6.6,8.5-141.1,15.1-300.3,14.7c-149.9-0.3-270-6.7-276.2-14.7V242.5z"/><path d="M258.7,446.9c0,18.4,14.9,33.3,33.3,33.3s33.3-14.9,33.3-33.3c0-18.4-14.9-33.3-33.3-33.3S258.7,428.5,258.7,446.9z"/><path d="M517.1,446.9c0,18.4,14.9,33.3,33.3,33.3s33.3-14.9,33.3-33.3c0-18.4-14.9-33.3-33.3-33.3S517.1,428.5,517.1,446.9z"/><path d="M485.8,551.8c-5.1,0-9.2,4-9.2,9.1c0,0.1,0,0.1,0,0.1c-0.1,31.3-24.9,55.1-55.5,55.1c-30.6,0-55.3-23.9-55.5-55.1c0-0.1,0-0.1,0-0.3c0-5.1-4.1-8.8-9.2-8.8c-5.1,0-9.2,4.5-9.2,9.6c0,40.9,33.1,73.9,73.9,73.9c40.8-0.1,73.9-33.1,73.9-74.1C495,556.3,490.9,551.8,485.8,551.8z"/></g>
</svg>